<svg fill="currentColor" viewBox="0 0 24 24" xmlns="http://www.w3.org/2000/svg">
<path d="M12,2.2c-2.7,0-3.1,0-4.2,0.1c-1.1,0-1.8,0.2-2.4,0.4c-0.6,0.2-1.1,0.5-1.6,1C3.3,4.2,3,4.7,2.7,5.3C2.5,5.9,2.3,6.6,2.3,7.8c-0.1,1.1-0.1,1.5-0.1,4.2s0,3.1,0.1,4.2c0,1.1,0.2,1.8,0.4,2.4c0.2,0.6,0.5,1.1,1,1.6c0.5,0.5,1,0.8,1.6,1c0.6,0.2,1.3,0.4,2.4,0.4c1.1,0.1,1.5,0.1,4.2,0.1s3.1,0,4.2-0.1c1.1,0,1.8-0.2,2.4-0.4c0.6-0.2,1.1-0.5,1.6-1c0.5-0.5,0.8-1,1-1.6c0.2-0.6,0.4-1.3,0.4-2.4c0.1-1.1,0.1-1.5,0.1-4.2s0-3.1-0.1-4.2c0-1.1-0.2-1.8-0.4-2.4c-0.2-0.6-0.5-1.1-1-1.6c-0.5-0.5-1-0.8-1.6-1C18.6,2.5,17.9,2.3,16.8,2.3C15.7,2.2,15.3,2.2,12,2.2z M12,4.4c2.6,0,3,0,4.1,0.1c0.9,0,1.4,0.2,1.7,0.3c0.4,0.1,0.6,0.3,0.9,0.5c0.3,0.3,0.4,0.5,0.5,0.9c0.1,0.3,0.3,0.8,0.3,1.7c0.1,1,0.1,1.4,0.1,4.1s0,3-0.1,4.1c0,0.9-0.2,1.4-0.3,1.7c-0.1,0.4-0.3,0.6-0.5,0.9c-0.3,0.3-0.5,0.4-0.9,0.5c-0.3,0.1-0.8,0.3-1.7,0.3c-1,0.1-1.4,0.1-4.1,0.1s-3,0-4.1-0.1c-0.9,0-1.4-0.2-1.7-0.3c-0.4-0.1-0.6-0.3-0.9-0.5c-0.3-0.3-0.4-0.5-0.5-0.9c-0.1-0.3-0.3-0.8-0.3-1.7c-0.1-1-0.1-1.4-0.1-4.1s0-3,0.1-4.1c0-0.9,0.2,1.4,0.3,1.7c0.1-0.4,0.3-0.6,0.5-0.9c0.3-0.3,0.5-0.4,0.9-0.5c0.3-0.1,0.8-0.3,1.7-0.3C9,4.4,9.4,4.4,12,4.4z M12,7.2c-2.6,0-4.8,2.1-4.8,4.8s2.1,4.8,4.8,4.8s4.8-2.1,4.8-4.8S14.6,7.2,12,7.2z M12,14.6c-1.4,0-2.6-1.2-2.6-2.6s1.2-2.6,2.6-2.6s2.6,1.2,2.6,2.6S13.4,14.6,12,14.6z M16.6,6.2c-0.7,0-1.2,0.5-1.2,1.2s0.5,1.2,1.2,1.2s1.2-0.5,1.2-1.2S17.3,6.2,16.6,6.2z"></path>
</svg>