<svg xmlns="http://www.w3.org/2000/svg" viewBox="0 0 369.9130434782609 86.95202707768027">
  <g transform="matrix(0.1598399170228355,0,0,0.1598399170228355,-1.0856172911939521,-1.0877942948398125)"
    fill="#72990f">
    <g xmlns="http://www.w3.org/2000/svg">
      <rect x="76.5" y="76.5" transform="matrix(0.7071 -0.7071 0.7071 0.7071 -101.3944 244.8154)" width="336.6"
        height="336.6"
        style="fill: none; stroke: #72990f; stroke-width: 13.5999; stroke-linecap: round; stroke-linejoin: round; stroke-miterlimit: 67.9997;">
      </rect>
      <path
        d="M244.8,410.7L78.9,244.8L244.8,78.9l165.9,165.9L244.8,410.7z M151.1,244.8l93.7,93.7l93.7-93.7l-93.7-93.8L151.1,244.8z">
      </path>
      <path
        d="M244.8,410.7L78.9,244.8L244.8,78.9l165.9,165.9L244.8,410.7z M151.1,244.8l93.7,93.7l93.7-93.7l-93.7-93.8 L151.1,244.8z"
        style="fill: none; stroke: #72990f; stroke-width: 13.6001; stroke-linecap: round; stroke-linejoin: round; stroke-miterlimit: 68.0004;">
      </path>
      <rect x="229.5" y="229.5" transform="matrix(0.7072 -0.707 0.707 0.7072 -101.4169 244.7354)" width="30.6"
        height="30.6"></rect>
      <rect x="229.5" y="229.5" transform="matrix(0.7072 -0.707 0.707 0.7072 -101.4169 244.7354)" class="st0"
        width="30.6" height="30.6"
        style="fill: none; stroke: #72990f; stroke-width: 13.5999; stroke-linecap: round; stroke-linejoin: round; stroke-miterlimit: 67.9997;">
      </rect>
      <polygon points="244.8,482.8 448.8,278.8 482.8,312.8 244.8,550.8 6.8,312.8 40.8,278.8"></polygon>
      <polygon points="244.8,482.8 448.8,278.8 482.8,312.8 244.8,550.8 6.8,312.8 40.8,278.8"
        style="fill: none; stroke: #72990f; stroke-width: 13.6001; stroke-linecap: round; stroke-linejoin: round; stroke-miterlimit: 68.0004;">
      </polygon>
    </g>
  </g>
  <g transform="matrix(1.052513880108879,0,0,1.052513880108879,92.58985577122627,17.47486421017758)" fill="#b06010">
    <path
      d="M16.72 10 q4.76 0 7.68 2.74 t2.92 7.3 t-2.88 7.28 t-7.72 2.72 l-7.64 0 l0 8.16 q0 0.56 -0.42 0.98 t-0.98 0.42 l-3.04 0 q-0.56 0 -0.98 -0.42 t-0.42 -0.98 l0 -12.4 q0 -0.56 0.42 -0.98 t0.98 -0.42 l11.84 0 q2.68 0 3.84 -1.16 q1.16 -1.04 1.16 -3.16 t-1.2 -3.26 t-3.8 -1.14 l-11.84 0 q-0.56 0 -0.98 -0.42 t-0.42 -0.98 l0 -2.88 q0 -0.56 0.42 -0.98 t0.98 -0.42 l12.08 0 z M55.212 33.92 q0.6 0 1 0.42 t0.4 1.02 l0 2.92 q0 0.56 -0.4 0.98 t-1 0.42 l-19.76 0 q-0.56 0 -0.98 -0.42 t-0.42 -0.98 l0 -2.92 q0 -0.6 0.42 -1.02 t0.98 -0.42 l19.76 0 z M35.452 27.72 q-0.56 0 -0.98 -0.42 t-0.42 -0.98 l0 -3 q0 -0.56 0.42 -0.98 t0.98 -0.42 l17.96 0 q0.6 0 1.02 0.42 t0.42 0.98 l0 3 q0 0.56 -0.42 0.98 t-1.02 0.42 l-17.96 0 z M55.212 10 q0.6 0 1 0.42 t0.4 0.98 l0 2.92 q0 0.6 -0.4 1.02 t-1 0.42 l-19.76 0 q-0.56 0 -0.98 -0.42 t-0.42 -1.02 l0 -2.92 q0 -0.56 0.42 -0.98 t0.98 -0.42 l19.76 0 z M83.06400000000001 28.2 l6.04 9.24 q0.44 0.72 0.04 1.44 q-0.16 0.32 -0.5 0.52 t-0.7 0.2 l-3.64 0 q-0.36 0 -0.68 -0.18 t-0.48 -0.46 l-6.08 -9.64 l-7.12 0 l0 8.88 q0 0.56 -0.42 0.98 t-0.98 0.42 l-3.04 0 q-0.56 0 -0.98 -0.42 t-0.42 -0.98 l0 -13.16 q0 -0.56 0.42 -0.98 t0.98 -0.42 l12.32 0 q3.52 0 4.68 -2 q0.4 -0.64 0.4 -1.84 q0 -1.88 -1.24 -2.96 q-1.28 -1.16 -3.68 -1.16 l-12.48 0 q-0.56 0 -0.98 -0.42 t-0.42 -0.98 l0 -2.88 q0 -0.56 0.42 -0.98 t0.98 -0.42 l12.84 0 q4.68 0 7.48 2.64 q2.92 2.64 2.92 7.16 q0 2.92 -1.28 4.98 t-3.72 3.14 z M101.036 21.88 q0.6 0 1 0.42 t0.4 1.02 l0 14.96 q0 0.56 -0.4 0.98 t-1 0.42 l-3.04 0 q-0.56 0 -0.98 -0.42 t-0.42 -0.98 l0 -14.96 q0 -0.6 0.42 -1.02 t0.98 -0.42 l3.04 0 z M101.036 10 q0.6 0 1 0.42 t0.4 0.98 l0 7.4 q0 0.6 -0.4 1.02 t-1 0.42 l-3.04 0 q-0.56 0 -0.98 -0.42 t-0.42 -1.02 l0 -7.4 q0 -0.56 0.42 -0.98 t0.98 -0.42 l3.04 0 z M139.048 10 q0.56 0 0.98 0.42 t0.42 0.98 l0 26.8 q0 0.56 -0.42 0.98 t-0.98 0.42 l-3.04 0 q-0.6 0 -1 -0.42 t-0.4 -0.98 l0 -18.08 l-7.4 9.52 q-0.44 0.52 -1.12 0.52 l0 0 q-0.32 0 -0.64 -0.14 t-0.48 -0.42 l-13.12 -17.36 q-0.24 -0.28 -0.28 -0.7 t0.16 -0.76 t0.52 -0.56 t0.72 -0.22 l3.52 0 q0.68 0 1.12 0.56 l8.48 11.2 l8.28 -11.2 q0.44 -0.56 1.16 -0.56 l3.52 0 z M116.00800000000001 29.4 q0.56 0 0.98 0.4 t0.42 1 l0 7.4 q0 0.56 -0.42 0.98 t-0.98 0.42 l-3.04 0 q-0.56 0 -0.98 -0.42 t-0.42 -0.98 l0 -7.4 q0 -0.6 0.42 -1 t0.98 -0.4 l3.04 0 z M170.74 33.92 q0.6 0 1 0.42 t0.4 1.02 l0 2.92 q0 0.56 -0.4 0.98 t-1 0.42 l-19.76 0 q-0.56 0 -0.98 -0.42 t-0.42 -0.98 l0 -2.92 q0 -0.6 0.42 -1.02 t0.98 -0.42 l19.76 0 z M150.98 27.72 q-0.56 0 -0.98 -0.42 t-0.42 -0.98 l0 -3 q0 -0.56 0.42 -0.98 t0.98 -0.42 l17.96 0 q0.6 0 1.02 0.42 t0.42 0.98 l0 3 q0 0.56 -0.42 0.98 t-1.02 0.42 l-17.96 0 z M170.74 10 q0.6 0 1 0.42 t0.4 0.98 l0 2.92 q0 0.6 -0.4 1.02 t-1 0.42 l-19.76 0 q-0.56 0 -0.98 -0.42 t-0.42 -1.02 l0 -2.92 q0 -0.56 0.42 -0.98 t0.98 -0.42 l19.76 0 z M182.472 10 q0.6 0 1.02 0.42 t0.42 1.02 l0 2.92 q0 0.6 -0.42 1.02 t-1.02 0.42 l-4.12 0 q-0.56 0 -0.98 -0.42 t-0.42 -1.02 l0 -2.92 q0 -0.6 0.42 -1.02 t0.98 -0.42 l4.12 0 z M200.352 10 q0.56 0 0.98 0.42 t0.42 1.02 l0 2.92 q0 0.6 -0.42 1.02 t-0.98 0.42 l-8.04 0 l0 22.72 q0 0.56 -0.42 0.98 t-0.98 0.42 l-3.08 0 q-0.6 0 -1.02 -0.42 t-0.42 -0.98 l0 -27.08 q0 -0.6 0.42 -1.02 t1.02 -0.42 l12.52 0 z M229.364 33.92 q0.6 0 1 0.42 t0.4 1.02 l0 2.92 q0 0.56 -0.4 0.98 t-1 0.42 l-19.76 0 q-0.56 0 -0.98 -0.42 t-0.42 -0.98 l0 -2.92 q0 -0.6 0.42 -1.02 t0.98 -0.42 l19.76 0 z M209.60399999999998 27.72 q-0.56 0 -0.98 -0.42 t-0.42 -0.98 l0 -3 q0 -0.56 0.42 -0.98 t0.98 -0.42 l17.96 0 q0.6 0 1.02 0.42 t0.42 0.98 l0 3 q0 0.56 -0.42 0.98 t-1.02 0.42 l-17.96 0 z M229.364 10 q0.6 0 1 0.42 t0.4 0.98 l0 2.92 q0 0.6 -0.4 1.02 t-1 0.42 l-19.76 0 q-0.56 0 -0.98 -0.42 t-0.42 -1.02 l0 -2.92 q0 -0.56 0.42 -0.98 t0.98 -0.42 l19.76 0 z M257.216 28.2 l6.04 9.24 q0.44 0.72 0.04 1.44 q-0.16 0.32 -0.5 0.52 t-0.7 0.2 l-3.64 0 q-0.36 0 -0.68 -0.18 t-0.48 -0.46 l-6.08 -9.64 l-7.12 0 l0 8.88 q0 0.56 -0.42 0.98 t-0.98 0.42 l-3.04 0 q-0.56 0 -0.98 -0.42 t-0.42 -0.98 l0 -13.16 q0 -0.56 0.42 -0.98 t0.98 -0.42 l12.32 0 q3.52 0 4.68 -2 q0.4 -0.64 0.4 -1.84 q0 -1.88 -1.24 -2.96 q-1.28 -1.16 -3.68 -1.16 l-12.48 0 q-0.56 0 -0.98 -0.42 t-0.42 -0.98 l0 -2.88 q0 -0.56 0.42 -0.98 t0.98 -0.42 l12.84 0 q4.68 0 7.48 2.64 q2.92 2.64 2.92 7.16 q0 2.92 -1.28 4.98 t-3.72 3.14 z">
    </path>
  </g>
</svg>