<svg xmlns="http://www.w3.org/2000/svg" width="32" height="32" viewBox="0 0 32 32" role="img" aria-label="Phone" fill="none" stroke="currentColor" stroke-width="2" stroke-linecap="round" stroke-linejoin="round">
  <path d="M22.8 20.8c-1.2 1.2-2.3 1.7-3.5 1.6-1.9-.2-4.3-1.9-7.1-4.6s-4.4-5.2-4.6-7.1c-.1-1.2.4-2.3 1.6-3.5l1.2-1.2c.6-.6 1.5-.6 2.1 0l2.1 2.1c.6.6.6 1.5 0 2.1l-1 .9c-.4.4-.5 1-.2 1.6.6 1.2 1.7 2.7 3.1 4.1 1.4 1.4 2.9 2.5 4.1 3.1.6.3 1.2.2 1.6-.2l.9-1c.6-.6 1.5-.6 2.1 0l2.1 2.1c.6.6.6 1.5 0 2.1l-1.2 1.2Z"/>
</svg>